<svg viewBox="0 0 20 20" fill="none" xmlns="http://www.w3.org/2000/svg">
<path fill-rule="evenodd" clip-rule="evenodd" d="M14.707 14.7071C14.3164 15.0976 13.6833 15.0976 13.2927 14.7071L9.99985 11.4142L6.70695 14.7071C6.31643 15.0976 5.68327 15.0976 5.29274 14.7071C4.90222 14.3166 4.90222 13.6834 5.29274 13.2929L8.58563 10L5.29274 6.70711C4.90222 6.31658 4.90222 5.68342 5.29274 5.29289C5.68327 4.90237 6.31643 4.90237 6.70695 5.29289L9.99985 8.58579L13.2927 5.29289C13.6833 4.90237 14.3164 4.90237 14.707 5.29289C15.0975 5.68342 15.0975 6.31658 14.707 6.70711L11.4141 10L14.707 13.2929C15.0975 13.6834 15.0975 14.3166 14.707 14.7071Z" fill="#001A39"/>
</svg>
