<svg width="24" height="24" viewBox="0 0 24 24" fill="none" xmlns="http://www.w3.org/2000/svg">
    <path fill-rule="evenodd" clip-rule="evenodd" d="M18 19C18 19.5523 17.5523 20 17 20H7C6.44772 20 6 19.5523 6 19V5C6 4.44772 6.44771 4 7 4H12V8C12 9.10457 12.8954 10 14 10H18V19ZM12.9108 2.00392C12.8598 2.00131 12.8087 2 12.7574 2H7C5.34315 2 4 3.34315 4 5V19C4 20.6569 5.34315 22 7 22H17C18.6569 22 20 20.6569 20 19V9.24264C20 8.44699 19.6839 7.68393 19.1213 7.12132L16.5 4.5L14.8787 2.87868C14.4521 2.45205 13.9102 2.16719 13.3262 2.05441C13.224 2.01915 13.1142 2 13 2C12.9699 2 12.9402 2.00133 12.9108 2.00392ZM14 4.82843V8H17.1716L15.0858 5.91421L14 4.82843ZM8 13C8 12.4477 8.44772 12 9 12H15C15.5523 12 16 12.4477 16 13C16 13.5523 15.5523 14 15 14H9C8.44772 14 8 13.5523 8 13ZM9 16C8.44772 16 8 16.4477 8 17C8 17.5523 8.44772 18 9 18H15C15.5523 18 16 17.5523 16 17C16 16.4477 15.5523 16 15 16H9Z" fill="#001A39" />
</svg>