<svg width="16" height="16" viewBox="0 0 16 16" fill="none" xmlns="http://www.w3.org/2000/svg">
<rect width="16" height="16"/>
<path d="M5.58072 4.49512C6.08563 4.49512 6.49494 4.08581 6.49494 3.5809C6.49494 3.076 6.08563 2.66669 5.58072 2.66669C5.07581 2.66669 4.6665 3.076 4.6665 3.5809C4.6665 4.08581 5.07581 4.49512 5.58072 4.49512Z" fill="#001A39"/>
<path d="M10.0221 4.49512C10.527 4.49512 10.9363 4.08581 10.9363 3.5809C10.9363 3.076 10.527 2.66669 10.0221 2.66669C9.51722 2.66669 9.10791 3.076 9.10791 3.5809C9.10791 4.08581 9.51722 4.49512 10.0221 4.49512Z" fill="#001A39"/>
<path d="M5.58072 8.91425C6.08563 8.91425 6.49494 8.50494 6.49494 8.00003C6.49494 7.49512 6.08563 7.08582 5.58072 7.08582C5.07581 7.08582 4.6665 7.49512 4.6665 8.00003C4.6665 8.50494 5.07581 8.91425 5.58072 8.91425Z" fill="#001A39"/>
<path d="M10.0221 8.91425C10.527 8.91425 10.9363 8.50494 10.9363 8.00003C10.9363 7.49512 10.527 7.08582 10.0221 7.08582C9.51722 7.08582 9.10791 7.49512 9.10791 8.00003C9.10791 8.50494 9.51722 8.91425 10.0221 8.91425Z" fill="#001A39"/>
<path d="M5.58072 13.3334C6.08563 13.3334 6.49494 12.9241 6.49494 12.4192C6.49494 11.9143 6.08563 11.5049 5.58072 11.5049C5.07581 11.5049 4.6665 11.9143 4.6665 12.4192C4.6665 12.9241 5.07581 13.3334 5.58072 13.3334Z" fill="#001A39"/>
<path d="M10.0221 13.3334C10.527 13.3334 10.9363 12.9241 10.9363 12.4192C10.9363 11.9143 10.527 11.5049 10.0221 11.5049C9.51722 11.5049 9.10791 11.9143 9.10791 12.4192C9.10791 12.9241 9.51722 13.3334 10.0221 13.3334Z" fill="#001A39"/>
</svg>
