<svg width="16" height="16" viewBox="0 0 16 16" fill="none" xmlns="http://www.w3.org/2000/svg">
<path fill-rule="evenodd" clip-rule="evenodd" d="M1.52978 0.852439C1.23403 0.844176 0.992099 1.08611 1.00036 1.38185L1.11125 5.35047C1.12388 5.80241 1.6709 6.02009 1.99059 5.7004L3.21219 4.47881L6.58585 7.85247L3.21236 11.226L1.99044 10.004C1.67075 9.68435 1.12372 9.90203 1.11109 10.354L1.00021 14.3226C0.991942 14.6183 1.23388 14.8603 1.52962 14.852L5.49824 14.7411C5.95017 14.7285 6.16786 14.1815 5.84817 13.8618L4.62658 12.6402L8.00006 9.26669L11.3736 12.6402L10.1519 13.8618C9.83224 14.1815 10.0499 14.7285 10.5019 14.7411L14.4705 14.852C14.7662 14.8603 15.0082 14.6184 14.9999 14.3226L14.889 10.354C14.8764 9.90206 14.3293 9.68438 14.0097 10.0041L12.7878 11.226L9.41428 7.85247L12.7879 4.47881L14.0096 5.70043C14.3293 6.02012 14.8763 5.80244 14.8889 5.3505L14.9998 1.38188C15.0081 1.08614 14.7661 0.844207 14.4704 0.85247L10.5018 0.96336C10.0498 0.975987 9.83214 1.52301 10.1518 1.8427L11.3737 3.0646L8.00006 6.43826L4.6264 3.0646L5.84833 1.84267C6.16801 1.52298 5.95033 0.975957 5.4984 0.963329L1.52978 0.852439Z" fill="#001A39"/>
</svg>
