<svg width="16" height="16" viewBox="0 0 16 16" fill="none" xmlns="http://www.w3.org/2000/svg">
<path d="M5.82335 5.06361C5.86328 4.94379 5.95646 4.91716 6.02301 5.03698L9.52364 11.6938C9.63013 11.8935 9.74992 11.9601 9.89633 11.9601C10.0028 11.9601 10.096 11.8402 10.1759 11.6139L12.5451 4.90385C12.8512 4.05177 13.1574 3.51923 13.4901 3.51923H13.8229C13.9028 3.51923 13.9294 3.50592 13.9427 3.41272L13.9959 3.15976C14.0092 3.05325 13.9959 3 13.8628 3C13.6765 3 13.4103 3.03994 12.7181 3.03994C11.7731 3.03994 11.3605 3 11.2008 3C11.1076 3 11.081 3.02663 11.0676 3.0932L11.0277 3.41272C11.0144 3.50592 11.041 3.51923 11.1608 3.51923H11.5202C11.9728 3.51923 12.026 4.10503 11.5335 5.68935L10.4421 9.24408C10.3888 9.40385 10.2956 9.4571 10.2291 9.32396L7.1677 3.38609C7.06122 3.14645 6.92811 3.03994 6.66191 3.03994C5.13121 3.03994 4.5988 3 4.42576 3C4.31928 3 4.30597 3.02663 4.27935 3.10651L4.21279 3.38609C4.18617 3.4926 4.21279 3.51923 4.30597 3.51923H4.83838C5.15783 3.51923 5.61039 3.89201 5.23769 5.03698L3.78686 9.59024C3.36093 10.9216 3.01486 11.4808 2.38927 11.4808H2.16299C2.08313 11.4808 2.05651 11.5207 2.0432 11.5873L2.00327 11.8669C1.98996 11.9601 2.01658 12 2.09644 12C2.24286 12 2.6821 11.9601 3.60052 11.9601C4.43907 11.9601 5.01142 12 5.14452 12C5.26432 12 5.27763 11.9734 5.30425 11.8935L5.34418 11.6139C5.35749 11.5207 5.33087 11.4808 5.23769 11.4808H4.70528C4.19948 11.4808 4.21279 10.682 4.82507 8.55177L5.82335 5.06361Z" fill="#001A39"/>
</svg>
