<svg width="24" height="24" viewBox="0 0 24 24" fill="none" xmlns="http://www.w3.org/2000/svg">
<path d="M12 10.1601C13.9344 10.1601 15.5 8.55865 15.5 6.58004C15.5 4.60143 13.9344 3 12 3C10.0656 3 8.5 4.60143 8.5 6.58004C8.5 8.55865 10.0656 10.1601 12 10.1601ZM14.4 11.183H14.1406C13.4906 11.5026 12.7688 11.6944 12 11.6944C11.2313 11.6944 10.5125 11.5026 9.85938 11.183H9.6C7.6125 11.183 6 12.8323 6 14.8653V19.4657C6 20.3128 6.67188 21 7.5 21H16.5C17.3281 21 18 20.3128 18 19.4657V14.8653C18 12.8323 16.3875 11.183 14.4 11.183Z" fill="#001A39"/>
</svg>
