<svg width="24" height="24" viewBox="0 0 24 24" fill="none" xmlns="http://www.w3.org/2000/svg">
<path d="M8.66389 13H12.6694C13.0361 13 13.3333 13.2786 13.3333 13.6224V17.3776C13.3333 17.7214 13.0361 18 12.6694 18H8.66389C8.29722 18 8 17.7214 8 17.3776V13.6224C8 13.2786 8.29722 13 8.66389 13Z" fill="#646a82"/>
<path d="M13.7778 14.4753L15.3 13.4909C15.5958 13.3008 16 13.4961 16 13.8268V17.1719C16 17.5039 15.5944 17.6979 15.3 17.5078L13.7778 16.5247V14.4753Z" fill="#646a82"/>
<path fill-rule="evenodd" clip-rule="evenodd" d="M12.7574 2C12.8087 2 12.8598 2.00131 12.9108 2.00392C12.9402 2.00133 12.9699 2 13 2C13.1142 2 13.224 2.01915 13.3262 2.05441C13.9102 2.16719 14.4521 2.45205 14.8787 2.87868L19.1213 7.12132C19.6839 7.68393 20 8.44699 20 9.24264V19C20 20.6569 18.6569 22 17 22H7C5.34315 22 4 20.6569 4 19V5C4 3.34315 5.34315 2 7 2H12.7574ZM17 20C17.5523 20 18 19.5523 18 19V10H14C12.8954 10 12 9.10457 12 8V4H7C6.44771 4 6 4.44772 6 5V19C6 19.5523 6.44772 20 7 20H17ZM14 8V4.82843L17.1716 8H14Z" fill="#646a82"/>
</svg>
