<svg width="24" height="24" viewBox="0 0 24 24" fill="none" xmlns="http://www.w3.org/2000/svg">
<path fill-rule="evenodd" clip-rule="evenodd" d="M15 10C15 12.2091 13.2091 14 11 14C8.79086 14 7 12.2091 7 10C7 7.79086 8.79086 6 11 6C13.2091 6 15 7.79086 15 10ZM14.1236 15.1238C13.2137 15.6797 12.1443 16 11 16C7.68629 16 5 13.3137 5 10C5 6.68629 7.68629 4 11 4C14.3137 4 17 6.68629 17 10C17 11.4459 16.4885 12.7724 15.6366 13.8084L19.707 17.8787C20.0975 18.2692 20.0975 18.9024 19.707 19.2929C19.3164 19.6834 18.6833 19.6834 18.2927 19.2929L14.1236 15.1238Z" fill="#001A39"/>
</svg>
