<svg width="24" height="24" viewBox="0 0 24 24" fill="none" xmlns="http://www.w3.org/2000/svg">
<path fill-rule="evenodd" clip-rule="evenodd" d="M12 10C10.8954 10 10 10.8954 10 12C10 13.1046 10.8954 14 12 14C13.1046 14 14 13.1046 14 12C14 10.8954 13.1046 10 12 10ZM8 12C8 9.79086 9.79086 8 12 8C14.2091 8 16 9.79086 16 12C16 14.2091 14.2091 16 12 16C9.79086 16 8 14.2091 8 12Z" fill="#001A39"/>
<path fill-rule="evenodd" clip-rule="evenodd" d="M12 2.83333C11.7569 2.83333 11.5237 2.92991 11.3518 3.10182C11.1799 3.27373 11.0833 3.50689 11.0833 3.75V3.90949C11.0814 4.38323 10.9411 4.84608 10.6795 5.24106C10.4179 5.63605 10.0465 5.94592 9.6111 6.13254C9.5336 6.16576 9.45205 6.18805 9.36881 6.19893C8.97315 6.33749 8.54722 6.37164 8.13258 6.29646C7.655 6.20987 7.21431 5.98219 6.86734 5.64279L6.86011 5.63572L6.80515 5.58068C6.72002 5.49545 6.61856 5.42748 6.50728 5.38135C6.396 5.33522 6.27671 5.31147 6.15625 5.31147C6.03579 5.31147 5.9165 5.33522 5.80522 5.38135C5.69394 5.42748 5.59284 5.49509 5.50771 5.58032L5.50699 5.58104C5.42176 5.66618 5.35415 5.76727 5.30802 5.87855C5.26189 5.98984 5.23814 6.10912 5.23814 6.22958C5.23814 6.35005 5.26189 6.46933 5.30802 6.58061C5.35415 6.69189 5.42176 6.79299 5.50699 6.87813L5.5695 6.94063C5.9089 7.28761 6.13654 7.72834 6.22313 8.20592C6.308 8.67399 6.25354 9.15647 6.06683 9.59354C5.89673 10.0396 5.5989 10.4258 5.21029 10.7037C4.81383 10.9873 4.34123 11.145 3.85394 11.1564L3.8325 11.1567H3.75C3.50689 11.1567 3.27373 11.2532 3.10182 11.4252C2.92991 11.5971 2.83333 11.8302 2.83333 12.0733C2.83333 12.3164 2.92991 12.5496 3.10182 12.7215C3.27373 12.8934 3.50689 12.99 3.75 12.99H3.90949C4.38323 12.9919 4.84608 13.1323 5.24106 13.3938C5.63467 13.6545 5.94377 14.0242 6.13059 14.4577C6.32499 14.9006 6.38277 15.3914 6.29646 15.8674C6.20987 16.345 5.98219 16.7857 5.64279 17.1327L5.63572 17.1399L5.58068 17.1948C5.49545 17.28 5.42748 17.3814 5.38135 17.4927C5.33522 17.604 5.31147 17.7233 5.31147 17.8438C5.31147 17.9642 5.33522 18.0835 5.38135 18.1948C5.42748 18.3061 5.49509 18.4072 5.58032 18.4923L5.58104 18.493C5.66617 18.5782 5.76727 18.6459 5.87855 18.692C5.98984 18.7381 6.10912 18.7619 6.22958 18.7619C6.35005 18.7619 6.46933 18.7381 6.58061 18.692C6.6919 18.6459 6.79299 18.5782 6.87813 18.493L6.94063 18.4305C7.28761 18.0911 7.72834 17.8635 8.20592 17.7769C8.67399 17.692 9.15646 17.7465 9.59354 17.9332C10.0395 18.1033 10.4258 18.4011 10.7037 18.7897C10.9873 19.1862 11.145 19.6588 11.1564 20.1461L11.1567 20.1675V20.25C11.1567 20.4931 11.2532 20.7263 11.4252 20.8982C11.5971 21.0701 11.8302 21.1667 12.0733 21.1667C12.3164 21.1667 12.5496 21.0701 12.7215 20.8982C12.8934 20.7263 12.99 20.4931 12.99 20.25V20.0942L12.99 20.0905C12.9919 19.6168 13.1323 19.1539 13.3938 18.7589C13.6545 18.3653 14.0243 18.0562 14.4578 17.8694C14.9007 17.675 15.3915 17.6172 15.8674 17.7035C16.345 17.7901 16.7857 18.0178 17.1327 18.3572L17.1399 18.3643L17.1948 18.4193C17.28 18.5045 17.3814 18.5725 17.4927 18.6187C17.604 18.6648 17.7233 18.6885 17.8438 18.6885C17.9642 18.6885 18.0835 18.6648 18.1948 18.6187C18.3061 18.5725 18.4072 18.5049 18.4923 18.4197L18.493 18.419C18.5782 18.3338 18.6459 18.2327 18.692 18.1214C18.7381 18.0102 18.7619 17.8909 18.7619 17.7704C18.7619 17.65 18.7381 17.5307 18.692 17.4194C18.6459 17.3081 18.5782 17.207 18.493 17.1219L18.4305 17.0594C18.0911 16.7124 17.8635 16.2717 17.7769 15.7941C17.6906 15.3181 17.7483 14.8273 17.9427 14.3845C18.1295 13.9509 18.4386 13.5812 18.8323 13.3205C19.2273 13.0589 19.6901 12.9186 20.1638 12.9167L20.1675 12.9167L20.25 12.9167C20.4931 12.9167 20.7263 12.8201 20.8982 12.6482C21.0701 12.4763 21.1667 12.2431 21.1667 12C21.1667 11.7569 21.0701 11.5237 20.8982 11.3518C20.7263 11.1799 20.4931 11.0833 20.25 11.0833H20.0942L20.0905 11.0833C19.6168 11.0814 19.1539 10.9411 18.7589 10.6795C18.364 10.4179 18.0541 10.0465 17.8675 9.6111C17.8342 9.53359 17.8119 9.45205 17.8011 9.36881C17.6625 8.97314 17.6284 8.54721 17.7035 8.13258C17.7901 7.655 18.0178 7.21431 18.3572 6.86734L18.3643 6.86012L18.4193 6.80515C18.5045 6.72002 18.5725 6.61856 18.6187 6.50728C18.6648 6.396 18.6885 6.27671 18.6885 6.15625C18.6885 6.03579 18.6648 5.9165 18.6187 5.80522C18.5725 5.69394 18.5049 5.59284 18.4197 5.50771L18.419 5.50699C18.3338 5.42176 18.2327 5.35415 18.1214 5.30802C18.0102 5.26189 17.8909 5.23814 17.7704 5.23814C17.65 5.23814 17.5307 5.26189 17.4194 5.30802C17.3081 5.35415 17.207 5.42176 17.1219 5.50699L17.0594 5.5695C16.7124 5.9089 16.2717 6.13654 15.7941 6.22313C15.3181 6.30943 14.8272 6.25166 14.3844 6.05726C13.9509 5.87043 13.5812 5.56134 13.3205 5.16773C13.0589 4.77275 12.9186 4.3099 12.9167 3.83616L12.9167 3.8325V3.75C12.9167 3.50689 12.8201 3.27373 12.6482 3.10182C12.4763 2.92991 12.2431 2.83333 12 2.83333ZM18.7833 14.75L19.622 15.1201C19.5739 15.229 19.5595 15.3499 19.5808 15.467C19.6018 15.5829 19.6567 15.6899 19.7384 15.7745L19.7887 15.8248C20.0442 16.0801 20.2472 16.3836 20.3856 16.7173C20.524 17.0512 20.5952 17.409 20.5952 17.7704C20.5952 18.1318 20.524 18.4897 20.3856 18.8235C20.2472 19.1573 20.0443 19.4606 19.7887 19.716L19.1408 19.0675L19.7894 19.7153C19.534 19.971 19.2307 20.1738 18.8968 20.3122C18.563 20.4506 18.2051 20.5219 17.8438 20.5219C17.4824 20.5219 17.1245 20.4506 16.7907 20.3122C16.457 20.1739 16.1538 19.9712 15.8985 19.7157L15.8479 19.6651C15.7632 19.5833 15.6562 19.5285 15.5403 19.5075C15.4232 19.4862 15.3024 19.5006 15.1935 19.5486L15.1845 19.5526C15.0777 19.5984 14.9865 19.6743 14.9224 19.7712C14.8585 19.8677 14.8241 19.9807 14.8233 20.0965V20.25C14.8233 20.9793 14.5336 21.6788 14.0179 22.1945C13.5022 22.7103 12.8027 23 12.0733 23C11.344 23 10.6445 22.7103 10.1288 22.1945C9.61307 21.6788 9.32333 20.9793 9.32333 20.25V20.1807C9.31899 20.0641 9.28049 19.9512 9.21255 19.8562C9.14299 19.759 9.04579 19.6849 8.93358 19.6437C8.91546 19.637 8.89755 19.6298 8.87988 19.622C8.77097 19.5739 8.65015 19.5595 8.533 19.5808C8.41713 19.6018 8.31011 19.6567 8.22544 19.7384L8.17521 19.7887C7.91988 20.0442 7.61636 20.2472 7.28267 20.3856C6.94883 20.524 6.59098 20.5952 6.22958 20.5952C5.86819 20.5952 5.51034 20.524 5.1765 20.3856C4.84297 20.2473 4.53993 20.0447 4.28468 19.7894C4.02899 19.534 3.82616 19.2307 3.68777 18.8968C3.54937 18.563 3.47814 18.2051 3.47814 17.8438C3.47814 17.4824 3.54937 17.1245 3.68777 16.7907C3.82616 16.4568 4.02899 16.1535 4.28468 15.8981L4.33493 15.8479C4.41668 15.7632 4.47154 15.6562 4.49254 15.5403C4.51378 15.4232 4.49945 15.3024 4.45138 15.1935L4.44741 15.1845C4.40163 15.0777 4.32567 14.9865 4.22879 14.9224C4.13229 14.8585 4.01927 14.8241 3.90354 14.8233H3.75C3.02065 14.8233 2.32118 14.5336 1.80546 14.0179C1.28973 13.5022 1 12.8027 1 12.0733C1 11.344 1.28973 10.6445 1.80546 10.1288C2.32118 9.61307 3.02065 9.32333 3.75 9.32333H3.81933C3.93593 9.31899 4.04875 9.28049 4.14376 9.21255C4.241 9.14299 4.31507 9.04579 4.35634 8.93358C4.36301 8.91546 4.37025 8.89755 4.37804 8.87988C4.42611 8.77097 4.44045 8.65015 4.41921 8.533C4.3982 8.41714 4.34334 8.31012 4.26159 8.22545L4.21135 8.17521C3.95566 7.91981 3.75282 7.61651 3.61443 7.28267C3.47604 6.94882 3.40481 6.59098 3.40481 6.22958C3.40481 5.86819 3.47604 5.51034 3.61443 5.1765C3.75276 4.84281 3.95547 4.53964 4.21099 4.28432C4.46631 4.0288 4.76948 3.82609 5.10316 3.68777C5.43701 3.54937 5.79486 3.47814 6.15625 3.47814C6.51764 3.47814 6.87549 3.54937 7.20934 3.68777C7.54318 3.82616 7.84647 4.02899 8.10188 4.28468L8.15212 4.33492C8.23679 4.41667 8.3438 4.47154 8.45967 4.49254C8.57681 4.51378 8.69763 4.49945 8.80655 4.45138C8.86525 4.42547 8.92635 4.40587 8.98882 4.39279C9.05273 4.3494 9.1079 4.2938 9.15095 4.22879C9.21486 4.13229 9.24927 4.01927 9.25 3.90354V3.75C9.25 3.02065 9.53973 2.32118 10.0555 1.80546C10.5712 1.28973 11.2707 1 12 1C12.7293 1 13.4288 1.28973 13.9445 1.80546C14.4603 2.32118 14.75 3.02065 14.75 3.75V3.83021C14.7507 3.94593 14.7851 4.05895 14.849 4.15546C14.9132 4.25234 15.0043 4.32835 15.1111 4.37412L15.1201 4.37799C15.2291 4.42606 15.3499 4.44045 15.467 4.41921C15.5829 4.3982 15.6899 4.34334 15.7745 4.2616L15.8248 4.21135C16.0802 3.95566 16.3835 3.75282 16.7173 3.61443C17.0512 3.47604 17.409 3.40481 17.7704 3.40481C18.1318 3.40481 18.4897 3.47604 18.8235 3.61443C19.1573 3.75282 19.4606 3.95566 19.716 4.21135C19.9714 4.4666 20.174 4.76963 20.3122 5.10316C20.4506 5.43701 20.5219 5.79486 20.5219 6.15625C20.5219 6.51764 20.4506 6.87549 20.3122 7.20934C20.1739 7.54302 19.9712 7.84619 19.7157 8.10151L19.6651 8.15212C19.5833 8.23679 19.5285 8.3438 19.5075 8.45967C19.4862 8.57681 19.5006 8.69763 19.5486 8.80655C19.5745 8.86525 19.5941 8.92635 19.6072 8.98881C19.6506 9.05273 19.7062 9.1079 19.7712 9.15095C19.8677 9.21486 19.9807 9.24927 20.0965 9.25H20.25C20.9793 9.25 21.6788 9.53973 22.1945 10.0555C22.7103 10.5712 23 11.2707 23 12C23 12.7293 22.7103 13.4288 22.1945 13.9445C21.6788 14.4603 20.9793 14.75 20.25 14.75H20.1698C20.0541 14.7507 19.941 14.7851 19.8445 14.849C19.7477 14.9132 19.6717 15.0043 19.6259 15.1111L18.7833 14.75Z" fill="#001A39"/>
</svg>
